<svg width="24" height="24" viewBox="0 0 24 24" fill="none" xmlns="http://www.w3.org/2000/svg">
<path fill-rule="evenodd" clip-rule="evenodd" d="M4 6.73047C4 6.31626 4.33579 5.98047 4.75 5.98047H19.15C19.5642 5.98047 19.9 6.31626 19.9 6.73047V19.2005C19.9 19.6147 19.5642 19.9505 19.15 19.9505H4.75C4.33579 19.9505 4 19.6147 4 19.2005V6.73047ZM5.5 7.48047V18.4505H18.4V7.48047H5.5Z" fill="#36354C"/>
<path fill-rule="evenodd" clip-rule="evenodd" d="M19.15 11.4805H4.75V9.98047H19.15V11.4805Z" fill="#36354C"/>
<path fill-rule="evenodd" clip-rule="evenodd" d="M17.1504 6.73C16.7362 6.73 16.4004 6.39421 16.4004 5.98V4.75C16.4004 4.33579 16.7362 4 17.1504 4C17.5646 4 17.9004 4.33579 17.9004 4.75V5.98C17.9004 6.39421 17.5646 6.73 17.1504 6.73Z" fill="#36354C"/>
<path fill-rule="evenodd" clip-rule="evenodd" d="M11.9492 6.73C11.535 6.73 11.1992 6.39421 11.1992 5.98V4.75C11.1992 4.33579 11.535 4 11.9492 4C12.3634 4 12.6992 4.33579 12.6992 4.75V5.98C12.6992 6.39421 12.3634 6.73 11.9492 6.73Z" fill="#36354C"/>
<path fill-rule="evenodd" clip-rule="evenodd" d="M6.75 6.73C6.33579 6.73 6 6.39421 6 5.98V4.75C6 4.33579 6.33579 4 6.75 4C7.16421 4 7.5 4.33579 7.5 4.75V5.98C7.5 6.39421 7.16421 6.73 6.75 6.73Z" fill="#36354C"/>
</svg>
