<svg width="24" height="24" viewBox="0 0 24 24" fill="none" xmlns="http://www.w3.org/2000/svg">
<path fill-rule="evenodd" clip-rule="evenodd" d="M14.615 15.9076H8.90723V14.3691H14.615V15.9076Z" fill="#36354C"/>
<path fill-rule="evenodd" clip-rule="evenodd" d="M16.5077 14.0106C15.8861 14.0106 15.3822 14.5145 15.3822 15.1361C15.3822 15.7577 15.8861 16.2616 16.5077 16.2616C17.1293 16.2616 17.6332 15.7577 17.6332 15.1361C17.6332 14.5145 17.1293 14.0106 16.5077 14.0106ZM13.8438 15.1361C13.8438 13.6649 15.0364 12.4722 16.5077 12.4722C17.979 12.4722 19.1717 13.6649 19.1717 15.1361C19.1717 16.6074 17.979 17.8001 16.5077 17.8001C15.0364 17.8001 13.8438 16.6074 13.8438 15.1361Z" fill="#36354C"/>
<path fill-rule="evenodd" clip-rule="evenodd" d="M7.01357 13.9747C6.39197 13.9747 5.88807 14.4786 5.88807 15.1002C5.88807 15.7218 6.39197 16.2257 7.01357 16.2257C7.63517 16.2257 8.13907 15.7218 8.13907 15.1002C8.13907 14.4786 7.63517 13.9747 7.01357 13.9747ZM4.34961 15.1002C4.34961 13.629 5.54231 12.4363 7.01357 12.4363C8.48484 12.4363 9.67754 13.629 9.67754 15.1002C9.67754 16.5715 8.48484 17.7642 7.01357 17.7642C5.54231 17.7642 4.34961 16.5715 4.34961 15.1002Z" fill="#36354C"/>
<path fill-rule="evenodd" clip-rule="evenodd" d="M13.1906 7.95964C12.8456 7.81246 12.4743 7.73711 12.0992 7.73818L12.0981 7.73818H8.56574L8.56502 7.73818C8.28487 7.73766 8.00873 7.80489 7.76016 7.93415C7.5116 8.0634 7.298 8.25083 7.13753 8.48048L7.13622 8.48235L5.71151 10.4958C5.71136 10.496 5.71121 10.4962 5.71106 10.4964C5.41538 10.9152 4.97959 11.2142 4.48253 11.3395L4.47732 11.3408L3.77905 11.5066C3.77891 11.5066 3.77877 11.5066 3.77863 11.5067C3.70426 11.5245 3.639 11.569 3.59514 11.6317C3.55118 11.6945 3.53176 11.7712 3.54052 11.8473L3.54105 11.8518L3.7758 14.1288C3.78521 14.1938 3.81734 14.2534 3.86658 14.2971C3.91699 14.3418 3.98186 14.3666 4.04916 14.3671H4.78876V15.9055H4.04597L4.0446 15.9055C3.60278 15.904 3.17672 15.7414 2.84611 15.4484C2.51549 15.1553 2.30299 14.7518 2.24839 14.3134L2.24738 14.3054L2.01157 12.0181C1.96125 11.57 2.07616 11.1189 2.33479 10.7494C2.59442 10.3785 2.98093 10.1156 3.42125 10.0103L3.42189 10.0101L4.11061 9.84668C4.24971 9.81057 4.37155 9.72632 4.45444 9.60884L5.87783 7.59729C6.18022 7.16521 6.58245 6.81252 7.05039 6.5692C7.5188 6.32562 8.03917 6.19885 8.56714 6.19972H12.096C12.6796 6.19821 13.2575 6.31555 13.7943 6.54457C14.3315 6.77373 14.8163 7.10991 15.2193 7.53265L15.2207 7.5341L17.4022 9.84649L20.1433 10.3429L20.144 10.3431C20.4503 10.3992 20.7418 10.5179 21.0002 10.6918C21.2585 10.8656 21.4783 11.0909 21.6456 11.3537C21.8129 11.6164 21.9242 11.9107 21.9725 12.2184C22.0205 12.5233 22.0055 12.8347 21.9287 13.1335L21.6465 14.3093L21.6451 14.3148C21.5265 14.7785 21.2562 15.1893 20.8773 15.4818C20.499 15.7738 20.0342 15.9312 19.5564 15.9291H18.3108V14.3906H19.5604L19.5625 14.3906C19.6981 14.3914 19.83 14.3468 19.9372 14.264C20.0433 14.1821 20.1193 14.0675 20.1535 13.938L20.4361 12.7604L20.438 12.753C20.4632 12.6565 20.4682 12.5558 20.4527 12.4572C20.4372 12.3586 20.4016 12.2643 20.348 12.1801C20.2944 12.096 20.224 12.0238 20.1412 11.9681C20.0586 11.9125 19.9654 11.8745 19.8674 11.8565C19.8672 11.8564 19.867 11.8564 19.8669 11.8564L16.6303 11.2702L14.1058 8.59418C14.1053 8.59373 14.1049 8.59327 14.1045 8.59282C13.8459 8.32199 13.535 8.10657 13.1906 7.95964Z" fill="#36354C"/>
<path fill-rule="evenodd" clip-rule="evenodd" d="M4.63962 9.70776L17.0319 9.80191L17.0202 11.3403L4.62793 11.2462L4.63962 9.70776Z" fill="#36354C"/>
</svg>
