<svg width="24" height="24" viewBox="0 0 24 24" fill="none" xmlns="http://www.w3.org/2000/svg">
<path fill-rule="evenodd" clip-rule="evenodd" d="M14.8289 19.152H8.6416V17.6521H14.8289V19.152Z" fill="#36354C"/>
<path fill-rule="evenodd" clip-rule="evenodd" d="M14.8999 16.4153C15.4261 15.8891 16.1397 15.5935 16.8838 15.5935H16.8843L16.8848 15.5935C17.6283 15.5944 18.341 15.8904 18.8665 16.4165C19.3919 16.9426 19.6871 17.6557 19.6871 18.3992C19.6871 18.7674 19.6145 19.1319 19.4737 19.472C19.3328 19.8121 19.1262 20.1211 18.866 20.3814C18.6057 20.6417 18.2967 20.8482 17.9566 20.9891C17.6166 21.1299 17.2524 21.2024 16.8845 21.2024C16.8843 21.2024 16.8841 21.2024 16.8838 21.2024V20.4525L16.8848 21.2024C16.8847 21.2024 16.8846 21.2024 16.8845 21.2024C16.5162 21.2028 16.1514 21.1307 15.8109 20.99C15.4704 20.8494 15.161 20.6429 14.9003 20.3826C14.6396 20.1222 14.4329 19.8131 14.2918 19.4728C14.1507 19.1323 14.0781 18.7675 14.0781 18.3992C14.0781 17.6551 14.3737 16.9415 14.8999 16.4153ZM16.8834 17.0934C16.5372 17.0936 16.2052 17.2311 15.9605 17.4759C15.7156 17.7207 15.5781 18.0529 15.5781 18.3992C15.5781 18.5706 15.6118 18.7402 15.6774 18.8983C15.743 19.0566 15.8391 19.2003 15.9603 19.3213C16.0815 19.4424 16.2253 19.5384 16.3836 19.6038C16.5419 19.6692 16.7116 19.7027 16.8829 19.7025L16.8834 19.7025H16.8838C17.055 19.7025 17.2244 19.6688 17.3826 19.6033C17.5407 19.5378 17.6843 19.4418 17.8054 19.3208C17.9264 19.1997 18.0224 19.056 18.0879 18.898C18.1534 18.7398 18.1871 18.5704 18.1871 18.3992C18.1871 18.0532 18.0498 17.7213 17.8052 17.4764C17.5608 17.2317 17.2293 17.094 16.8834 17.0934Z" fill="#36354C"/>
<path fill-rule="evenodd" clip-rule="evenodd" d="M6.58349 15.5557L6.5844 15.5557C7.32794 15.5566 8.0407 15.8526 8.56613 16.3787C9.09157 16.9047 9.38671 17.6178 9.38671 18.3614C9.38671 19.1048 9.09136 19.8179 8.56566 20.3436C8.03996 20.8693 7.32696 21.1646 6.58349 21.1646C5.84002 21.1646 5.12702 20.8693 4.60132 20.3436C4.07562 19.8179 3.78027 19.1048 3.78027 18.3614C3.78027 17.6178 4.07541 16.9047 4.60085 16.3787C5.12628 15.8526 5.83904 15.5566 6.58258 15.5557L6.58349 15.5557ZM6.58349 17.0556C6.23778 17.0563 5.90643 17.194 5.6621 17.4386C5.41755 17.6835 5.2802 18.0153 5.2802 18.3614C5.2802 18.707 5.41751 19.0385 5.66193 19.283C5.90635 19.5274 6.23784 19.6647 6.58349 19.6647C6.92914 19.6647 7.26063 19.5274 7.50505 19.283C7.74947 19.0385 7.88678 18.707 7.88678 18.3614C7.88678 18.0153 7.74943 17.6835 7.50488 17.4386C7.26055 17.194 6.9292 17.0563 6.58349 17.0556Z" fill="#36354C"/>
<path fill-rule="evenodd" clip-rule="evenodd" d="M14.3363 11.239C14.0475 10.9368 13.7006 10.696 13.3164 10.5311L13.9082 9.15283C14.4793 9.39806 14.9949 9.75633 15.4239 10.2061L15.4263 10.2085L17.8018 12.7451L20.8051 13.288L20.8056 13.2881C21.1263 13.3464 21.4314 13.4708 21.7016 13.6532C21.9726 13.8344 22.203 14.07 22.3781 14.345C22.5532 14.62 22.6699 14.928 22.7209 15.2499L22.7211 15.2508L22.7212 15.2518C22.7709 15.5702 22.7554 15.8955 22.6756 16.2078L22.3685 17.4832L22.3674 17.4876C22.2441 17.9735 21.961 18.4037 21.5635 18.7091C21.1689 19.0135 20.6844 19.1781 20.1861 19.1771H18.8329V17.6772H20.1877L20.1885 17.6772C20.3547 17.6776 20.5162 17.6227 20.6478 17.5212L20.6485 17.5207L20.6492 17.5201C20.7789 17.4205 20.8716 17.2805 20.9126 17.1223L21.2201 15.8451L21.2217 15.839C21.2517 15.7231 21.2577 15.6022 21.2394 15.4838C21.2205 15.3653 21.1775 15.252 21.113 15.1509L21.1129 15.1507L21.1128 15.1506C21.0493 15.0508 20.9656 14.9653 20.8671 14.8996L20.865 14.8982L20.8629 14.8967C20.7648 14.8303 20.654 14.7851 20.5375 14.7638C20.5374 14.7638 20.5372 14.7638 20.5371 14.7638L17.0464 14.1328L14.3363 11.239Z" fill="#36354C"/>
<path fill-rule="evenodd" clip-rule="evenodd" d="M7.36931 10.5183C7.08824 10.6637 6.84682 10.8754 6.66595 11.1351L6.66443 11.1372L5.11886 13.3231C4.80901 13.7605 4.3531 14.0728 3.83334 14.2038L3.82808 14.2051L3.07565 14.3832C2.9746 14.408 2.88589 14.4684 2.82586 14.5534C2.76743 14.6378 2.74179 14.7406 2.7538 14.8426L2.75453 14.8488L3.00396 17.3207C3.01633 17.4108 3.06054 17.4937 3.12873 17.5542L3.12936 17.5548C3.19836 17.6161 3.28751 17.65 3.37985 17.6499H4.18463V19.1499H3.38079C2.9208 19.1502 2.47675 18.9815 2.13297 18.6759C1.78987 18.3714 1.56986 17.9519 1.51432 17.4965L1.51338 17.4888L1.26336 15.0111C1.21037 14.5466 1.32856 14.0785 1.59601 13.6947L1.59674 13.6937L1.59747 13.6927C1.86731 13.3082 2.26798 13.0353 2.7245 12.925L2.72624 12.9245L3.47117 12.7482C3.64238 12.704 3.79244 12.6006 3.89473 12.4563C3.89478 12.4562 3.89483 12.4562 3.89488 12.4561L5.43676 10.2755C5.75672 9.81689 6.18345 9.44298 6.68014 9.18604L7.36931 10.5183Z" fill="#36354C"/>
<path fill-rule="evenodd" clip-rule="evenodd" d="M4.01618 12.5881L17.4498 12.698L17.4375 14.1979L4.00391 14.088L4.01618 12.5881Z" fill="#36354C"/>
<path fill-rule="evenodd" clip-rule="evenodd" d="M10.3605 2.79736L14.4953 4.92964L14.4497 5.43246L13.7028 5.36479C14.4497 5.43246 14.4497 5.43276 14.4497 5.43309L14.4496 5.4338L14.4495 5.43546C14.4493 5.43669 14.4492 5.43813 14.449 5.43978C14.4487 5.4431 14.4483 5.44728 14.4478 5.4523C14.4467 5.46235 14.4453 5.47578 14.4433 5.49242C14.4394 5.52569 14.4336 5.57185 14.4251 5.6295C14.4082 5.7447 14.3809 5.90637 14.3383 6.10325C14.2532 6.49588 14.1059 7.03492 13.8547 7.62761C13.3542 8.80885 12.4193 10.2511 10.7002 11.1242L10.3605 11.2967L10.0208 11.124C8.30294 10.2509 7.3688 8.80856 6.86865 7.62743C6.61769 7.03477 6.47042 6.49576 6.38546 6.10317C6.34285 5.9063 6.31556 5.74465 6.29867 5.62945C6.29021 5.57181 6.28434 5.52566 6.28044 5.4924C6.27849 5.47576 6.27704 5.46233 6.276 5.45229C6.27548 5.44726 6.27506 5.44309 6.27474 5.43977C6.27458 5.43812 6.27444 5.43668 6.27433 5.43545L6.27417 5.43379L6.27411 5.43308C6.27408 5.43276 6.27405 5.43245 7.02095 5.36479L6.27405 5.43245L6.22852 4.92981L10.3605 2.79736ZM7.85032 5.78071C7.85069 5.78244 7.85107 5.78416 7.85144 5.7859C7.92119 6.10817 8.04307 6.55426 8.24984 7.04256C8.62752 7.93445 9.27013 8.92743 10.3608 9.59683C11.4526 8.92735 12.0958 7.93424 12.4737 7.04239C12.6806 6.55412 12.8025 6.10805 12.8723 5.78581C12.8727 5.78416 12.873 5.78251 12.8734 5.78086L10.3608 4.48512L7.85032 5.78071Z" fill="#36354C"/>
</svg>
