<svg width="24" height="24" viewBox="0 0 24 24" fill="none" xmlns="http://www.w3.org/2000/svg">
<path fill-rule="evenodd" clip-rule="evenodd" d="M10.5791 2.59468C11.3604 1.80177 12.6395 1.80177 13.4208 2.59468L14.5712 3.76167C14.9498 4.1459 15.4674 4.36133 16.0068 4.35737L17.6455 4.34468C18.7589 4.33636 19.6635 5.24102 19.6552 6.35444L19.6425 7.99311C19.6386 8.53246 19.854 9.05014 20.2382 9.42866L21.4052 10.5791C22.1981 11.3604 22.1981 12.6395 21.4052 13.4208L20.2382 14.5712C19.854 14.9498 19.6386 15.4674 19.6425 16.0068L19.6552 17.6455C19.6635 18.7589 18.7589 19.6635 17.6455 19.6552L16.0068 19.6425C15.4674 19.6386 14.9498 19.854 14.5712 20.2382L13.4208 21.4052C12.6395 22.1981 11.3604 22.1981 10.5791 21.4052L9.42866 20.2382C9.05014 19.854 8.53246 19.6386 7.99311 19.6425L6.35444 19.6552C5.24102 19.6635 4.33636 18.7589 4.34468 17.6455L4.35737 16.0068C4.36133 15.4674 4.1459 14.9498 3.76167 14.5712L2.59468 13.4208C1.80177 12.6395 1.80177 11.3604 2.59468 10.5791L3.76167 9.42866C4.1459 9.05014 4.36133 8.53246 4.35737 7.99311L4.34468 6.35444C4.33636 5.24102 5.24102 4.33636 6.35444 4.34468L7.99311 4.35737C8.53245 4.36133 9.05014 4.1459 9.42866 3.76167L10.5791 2.59468ZM12.3554 3.64448C12.1601 3.44635 11.8398 3.44635 11.6445 3.64448L10.4951 4.81245C9.83254 5.48493 8.92539 5.86053 7.9814 5.85347L6.3437 5.84077C6.06534 5.83869 5.83869 6.06534 5.84077 6.3437L5.85347 7.9814C5.86053 8.92539 5.48493 9.83254 4.81245 10.4951L3.64448 11.6445C3.44635 11.8398 3.44635 12.1601 3.64448 12.3554L4.81245 13.5048C5.48493 14.1674 5.86053 15.0745 5.85347 16.0185L5.84077 17.6562C5.83869 17.9346 6.06534 18.1612 6.3437 18.1591L7.9814 18.1464C8.92539 18.1394 9.83254 18.515 10.4951 19.1875L11.6445 20.3554C11.8398 20.5535 12.1601 20.5535 12.3554 20.3554L13.5048 19.1875C14.1674 18.515 15.0745 18.1394 16.0185 18.1464L17.6562 18.1591C17.9346 18.1612 18.1612 17.9346 18.1591 17.6562L18.1464 16.0185C18.1394 15.0745 18.515 14.1674 19.1875 13.5048L20.3554 12.3554C20.5535 12.1601 20.5535 11.8398 20.3554 11.6445L19.1875 10.4951C18.515 9.83254 18.1394 8.92539 18.1464 7.9814L18.1591 6.3437C18.1612 6.06534 17.9346 5.83869 17.6562 5.84077L16.0185 5.85347C15.0745 5.86053 14.1674 5.48493 13.5048 4.81245L12.3554 3.64448ZM14.5048 13.0146C15.3331 13.0148 16.0048 13.6863 16.0048 14.5146C16.0048 15.3429 15.3331 16.0144 14.5048 16.0146C13.6764 16.0146 13.0048 15.343 13.0048 14.5146C13.0048 13.6862 13.6764 13.0146 14.5048 13.0146ZM14.7197 8.21968C15.0126 7.92678 15.4873 7.92678 15.7802 8.21968C16.0731 8.51257 16.0731 8.98733 15.7802 9.28022L9.28022 15.7802C8.98733 16.0731 8.51257 16.0731 8.21968 15.7802C7.92678 15.4873 7.92678 15.0126 8.21968 14.7197L14.7197 8.21968ZM14.5048 14.0146C14.2287 14.0146 14.0048 14.2385 14.0048 14.5146C14.0048 14.7907 14.2287 15.0146 14.5048 15.0146C14.7808 15.0144 15.0048 14.7906 15.0048 14.5146C15.0048 14.2386 14.7808 14.0148 14.5048 14.0146ZM9.48042 7.99897C10.3087 7.99904 10.9802 8.67078 10.9804 9.49897C10.9804 10.3274 10.3088 10.9989 9.48042 10.999C8.65199 10.999 7.98042 10.3274 7.98042 9.49897C7.98064 8.67074 8.65213 7.99897 9.48042 7.99897ZM9.48042 8.99897C9.20441 8.99897 8.98064 9.22302 8.98042 9.49897C8.98042 9.77512 9.20428 9.99897 9.48042 9.99897C9.75651 9.99891 9.98042 9.77507 9.98042 9.49897C9.9802 9.22306 9.75637 8.99904 9.48042 8.99897Z" fill="#36354C"/>
</svg>
