<svg width="32" height="32" viewBox="0 0 32 32" fill="none" xmlns="http://www.w3.org/2000/svg">
<path d="M17.1998 28.003C16.8798 28.003 16.5498 27.923 16.2598 27.773L7.99981 23.453C6.99981 22.933 6.60982 21.693 7.12981 20.693L13.5998 8.21298C13.9198 7.60298 14.4798 7.13298 15.1398 6.93298L20.6598 5.24298C21.9898 4.83298 23.4298 5.58298 23.8598 6.91298L25.6498 12.423C25.8598 13.073 25.7998 13.803 25.4898 14.413L19.0198 26.893C18.7698 27.383 18.3398 27.733 17.8198 27.903C17.6198 27.963 17.4098 27.993 17.2098 27.993L17.1998 28.003ZM21.3998 6.63298C21.2998 6.63298 21.1898 6.64298 21.0898 6.68298L15.5698 8.37298C15.2898 8.46298 15.0598 8.65298 14.9298 8.91298L8.45981 21.393C8.31981 21.663 8.41981 21.993 8.68981 22.133L16.9498 26.453C17.0798 26.523 17.2198 26.533 17.3598 26.493C17.4998 26.453 17.6098 26.353 17.6798 26.223L24.1498 13.743C24.2798 13.483 24.3098 13.183 24.2198 12.903L22.4298 7.39298C22.2798 6.94298 21.8598 6.64298 21.3998 6.64298V6.63298Z" fill="#36354C"/>
<path d="M19.9596 12.1228C20.9869 12.1228 21.8196 11.2856 21.8196 10.2528C21.8196 9.22004 20.9869 8.38281 19.9596 8.38281C18.9324 8.38281 18.0996 9.22004 18.0996 10.2528C18.0996 11.2856 18.9324 12.1228 19.9596 12.1228Z" fill="#EFE9FB"/>
<path d="M16.25 15.8132C16.5115 15.308 16.318 14.6886 15.8177 14.4296C15.3174 14.1706 14.6999 14.3702 14.4384 14.8753C14.1768 15.3805 14.3704 16 14.8707 16.259C15.3709 16.518 15.9885 16.3184 16.25 15.8132Z" fill="#36354C"/>
<path d="M17.8379 20.8327C18.0994 20.3276 17.9059 19.7081 17.4056 19.4491C16.9053 19.1901 16.2878 19.3897 16.0263 19.8949C15.7647 20.4 15.9583 21.0195 16.4586 21.2785C16.9588 21.5375 17.5764 21.3379 17.8379 20.8327Z" fill="#36354C"/>
<path d="M19.1264 16.1313L12.7256 18.1777L13.1824 19.6065L19.5832 17.56L19.1264 16.1313Z" fill="#36354C"/>
<path d="M18.2399 7.45332C18.0399 7.45332 17.8399 7.37332 17.6899 7.21332C16.6599 6.09332 16.3599 4.99332 16.3499 4.94332C16.2399 4.54332 16.4799 4.13332 16.8899 4.02332C17.2899 3.92332 17.6999 4.15332 17.7999 4.55332C17.7999 4.55332 18.0299 5.35332 18.7999 6.19332C19.0799 6.50332 19.0599 6.97332 18.7599 7.25332C18.6199 7.38332 18.4299 7.45332 18.2499 7.45332H18.2399Z" fill="#36354C"/>
<path d="M22.1999 9.89255C21.1199 9.89255 20.3499 9.79255 20.2699 9.78255C19.8599 9.72255 19.5699 9.35255 19.6299 8.94255C19.6899 8.53255 20.0699 8.24255 20.4699 8.30255C20.5099 8.30255 24.4299 8.82255 26.6999 7.43255C27.0499 7.22255 27.5199 7.33255 27.7299 7.68255C27.9399 8.03255 27.8299 8.50255 27.4799 8.71255C25.8699 9.69255 23.7299 9.90255 22.1899 9.90255L22.1999 9.89255Z" fill="#36354C"/>
<path d="M10.21 9.53246L10.78 9.68246C11.18 9.79246 11.18 10.3625 10.78 10.4625L10.21 10.6125C9.42 10.8225 8.8 11.4525 8.58 12.2525L8.43 12.8225C8.32 13.2225 7.76 13.2225 7.65 12.8225L7.5 12.2525C7.29 11.4525 6.67 10.8325 5.87 10.6125L5.3 10.4625C4.9 10.3525 4.9 9.78246 5.3 9.68246L5.87 9.53246C6.66 9.32246 7.28 8.69246 7.5 7.89246L7.65 7.32246C7.76 6.92246 8.32 6.92246 8.43 7.32246L8.58 7.89246C8.79 8.69246 9.41 9.31246 10.21 9.53246Z" fill="#FFC400"/>
<path d="M26.4593 22.9625L26.7293 23.0325C26.9193 23.0825 26.9193 23.3625 26.7293 23.4125L26.4593 23.4825C26.0793 23.5825 25.7793 23.8825 25.6793 24.2725L25.6093 24.5525C25.5593 24.7425 25.2893 24.7425 25.2293 24.5525L25.1593 24.2725C25.0593 23.8925 24.7593 23.5925 24.3793 23.4825L24.1093 23.4125C23.9193 23.3625 23.9193 23.0825 24.1093 23.0325L24.3793 22.9625C24.7593 22.8625 25.0593 22.5625 25.1593 22.1725L25.2293 21.8925C25.2793 21.7025 25.5493 21.7025 25.6093 21.8925L25.6793 22.1725C25.7793 22.5525 26.0793 22.8525 26.4593 22.9625Z" fill="#FFC400"/>
</svg>
