<svg width="24" height="24" viewBox="0 0 24 24" fill="none" xmlns="http://www.w3.org/2000/svg">
<path fill-rule="evenodd" clip-rule="evenodd" d="M7.38574 8.60059H13.0696V9.80059H7.38574V8.60059Z" fill="#36354C"/>
<path fill-rule="evenodd" clip-rule="evenodd" d="M7.38574 10.7378H13.0696V11.9378H7.38574V10.7378Z" fill="#36354C"/>
<path fill-rule="evenodd" clip-rule="evenodd" d="M9.84977 9.84468C9.75866 9.80737 9.66104 9.78858 9.5626 9.78938L9.55771 9.78942L7.76855 9.7894V8.5894H9.55549C9.81225 8.58766 10.0668 8.63686 10.3045 8.73415C10.5429 8.83179 10.7596 8.97591 10.9418 9.15812C11.124 9.34033 11.2681 9.55698 11.3657 9.79544C11.4631 10.0331 11.5122 10.2877 11.5105 10.5445V12.1219C11.5122 12.383 11.4622 12.6418 11.3632 12.8834C11.264 13.1258 11.1174 13.3461 10.9322 13.5313C10.747 13.7165 10.5267 13.8631 10.2843 13.9624C10.1273 14.0266 9.96312 14.0703 9.79573 14.0925L11.8027 16.1079L10.9524 16.9546L7.9434 13.933L8.36855 12.9096H9.52976C9.63252 12.9104 9.73441 12.8908 9.82951 12.8519C9.9246 12.8129 10.011 12.7554 10.0837 12.6828C10.1563 12.6101 10.2138 12.5237 10.2528 12.4286C10.2917 12.3335 10.3113 12.2316 10.3105 12.1289L10.3105 12.1241L10.3105 10.5373C10.3113 10.4389 10.2925 10.3412 10.2552 10.2501C10.2179 10.159 10.1629 10.0763 10.0933 10.0066C10.0236 9.93704 9.94087 9.88198 9.84977 9.84468Z" fill="#36354C"/>
<path fill-rule="evenodd" clip-rule="evenodd" d="M10.2331 5.75C6.65258 5.75 3.75 8.65258 3.75 12.2331C3.75 15.8136 6.65258 18.7162 10.2331 18.7162C13.8136 18.7162 16.7162 15.8136 16.7162 12.2331C16.7162 8.65258 13.8136 5.75 10.2331 5.75ZM2.25 12.2331C2.25 7.82415 5.82415 4.25 10.2331 4.25C14.642 4.25 18.2162 7.82415 18.2162 12.2331C18.2162 16.642 14.642 20.2162 10.2331 20.2162C5.82415 20.2162 2.25 16.642 2.25 12.2331Z" fill="#36354C"/>
<path fill-rule="evenodd" clip-rule="evenodd" d="M16.4531 10.3022C16.4531 9.88803 16.7889 9.55225 17.2031 9.55225H20.9997C21.4139 9.55225 21.7497 9.88803 21.7497 10.3022V14.1643C21.7497 14.5785 21.4139 14.9143 20.9997 14.9143H17.2031C16.7889 14.9143 16.4531 14.5785 16.4531 14.1643C16.4531 13.75 16.7889 13.4143 17.2031 13.4143H20.2497V11.0522H17.2031C16.7889 11.0522 16.4531 10.7165 16.4531 10.3022Z" fill="#36354C"/>
<path fill-rule="evenodd" clip-rule="evenodd" d="M13.8037 6.44043C13.8037 6.02622 14.1395 5.69043 14.5537 5.69043H20.1831C20.5973 5.69043 20.9331 6.02622 20.9331 6.44043V10.3024C20.9331 10.7167 20.5973 11.0524 20.1831 11.0524H17.2048C16.7905 11.0524 16.4548 10.7167 16.4548 10.3024C16.4548 9.88823 16.7905 9.55244 17.2048 9.55244H19.4331V7.19043H14.5537C14.1395 7.19043 13.8037 6.85464 13.8037 6.44043Z" fill="#36354C"/>
<path fill-rule="evenodd" clip-rule="evenodd" d="M16.9457 14.1655C16.9457 13.7513 17.2815 13.4155 17.6957 13.4155H19.3649C19.7791 13.4155 20.1149 13.7513 20.1149 14.1655V18.0275C20.1149 18.4418 19.7791 18.7775 19.3649 18.7775H14.5537C14.1395 18.7775 13.8037 18.4418 13.8037 18.0275C13.8037 17.6133 14.1395 17.2775 14.5537 17.2775H18.6149V14.9155H17.6957C17.2815 14.9155 16.9457 14.5797 16.9457 14.1655Z" fill="#36354C"/>
</svg>
